<svg width="498" height="153" viewBox="0 0 498 153" fill="none" xmlns="http://www.w3.org/2000/svg">
<path d="M11.9727 15.7617H0.107422V0.996094H11.9727V15.7617ZM11.7969 120H0.283203V34.4824H11.7969V120ZM80.8789 120H69.1895V44.9414L43.4375 45.6445V120H31.748V34.4824H43.4375V36.8555C48.0078 36.2695 52.6074 35.6543 57.2363 35.0098C62.8613 34.3066 67.4902 33.9551 71.123 33.9551C77.627 33.9551 80.8789 37.1484 80.8789 43.5352V120ZM147.236 110.068C147.236 116.689 143.955 120 137.393 120H109.619C103.057 120 99.7754 116.689 99.7754 110.068V44.4141C99.7754 37.793 103.057 34.4824 109.619 34.4824H137.393C143.955 34.4824 147.236 37.793 147.236 44.4141V61.4648H135.723V44.7656H111.465V109.717H135.723V90.6445H147.236V110.068ZM215.352 110.068C215.352 116.689 212.041 120 205.42 120H176.064C169.502 120 166.221 116.689 166.221 110.068V44.4141C166.221 37.793 169.502 34.4824 176.064 34.4824H205.42C212.041 34.4824 215.352 37.793 215.352 44.4141V110.068ZM203.662 109.717V44.7656H177.91V109.717H203.662ZM283.027 142.5C283.027 149.121 279.717 152.432 273.096 152.432H245.322C238.584 152.432 235.215 148.242 235.215 139.863C235.215 138.867 235.244 137.373 235.303 135.381C235.42 133.447 235.479 132.041 235.479 131.162H246.992V142.5H271.426V120H252.178C246.963 120 242.627 118.271 239.17 114.814C235.713 111.299 233.984 106.904 233.984 101.631V51.6211C233.984 46.582 235.508 42.3926 238.555 39.0527C241.602 35.6543 245.615 33.9551 250.596 33.9551C251.943 33.9551 258.887 34.9219 271.426 36.8555V34.4824H283.027V142.5ZM271.426 109.717V45.1172C262.168 44.5312 256.777 44.2383 255.254 44.2383C248.809 44.2383 245.586 47.5195 245.586 54.082V99.873C245.586 106.436 248.809 109.717 255.254 109.717H271.426ZM351.406 120H339.717V44.9414L313.965 45.6445V120H302.275V34.4824H313.965V36.8555C318.535 36.2695 323.135 35.6543 327.764 35.0098C333.389 34.3066 338.018 33.9551 341.65 33.9551C348.154 33.9551 351.406 37.1484 351.406 43.5352V120ZM382.695 15.7617H370.83V0.996094H382.695V15.7617ZM382.52 120H371.006V34.4824H382.52V120ZM433.232 120H416.621C410.059 120 406.777 116.689 406.777 110.068V44.7656H396.494V34.4824H406.777V7.85156H418.291V34.4824H433.232V44.7656H418.291V109.717H433.232V120ZM497.305 110.068C497.305 116.689 493.994 120 487.373 120H458.018C451.455 120 448.174 116.689 448.174 110.068V44.4141C448.174 37.793 451.455 34.4824 458.018 34.4824H487.373C493.994 34.4824 497.305 37.793 497.305 44.4141V110.068ZM485.615 109.717V44.7656H459.863V109.717H485.615Z" fill="#00F9FF"/>
</svg>
